<mxfile host="app.diagrams.net" modified="2024-03-20T07:16:24.191Z" agent="Mozilla/5.0 (Macintosh; Intel Mac OS X 10_15_7) AppleWebKit/537.36 (KHTML, like Gecko) Chrome/122.0.0.0 Safari/537.36" version="24.0.7" etag="4L1XXiN2Dd0PpcyGBdej" type="github">
  <diagram name="第 1 页" id="rX4F10bjcHPW6MjYGIrA">
    <mxGraphModel>
      <root>
        <mxCell id="0" />
        <mxCell id="1" parent="0" />
      </root>
    </mxGraphModel>
  </diagram>
</mxfile>
